<?xml version="1.0" standalone="no"?>
<!DOCTYPE svg PUBLIC "-//W3C//DTD SVG 20010904//EN"
 "http://www.w3.org/TR/2001/REC-SVG-20010904/DTD/svg10.dtd">
<svg version="1.0" xmlns="http://www.w3.org/2000/svg"
 width="512.000000pt" height="512.000000pt" viewBox="0 0 512.000000 512.000000"
 preserveAspectRatio="xMidYMid meet">
<metadata>
Created by potrace 1.14, written by Peter Selinger 2001-2017
</metadata>
<g transform="translate(0.000000,512.000000) scale(0.100000,-0.100000)"
fill="#000000" stroke="none">
<path d="M500 5099 c-106 -47 -161 -132 -168 -256 l-5 -83 -163 0 -164 0 0
-2380 0 -2380 2088 0 2087 0 473 473 472 472 0 1908 0 1907 -164 0 -163 0 -5
83 c-5 94 -25 142 -85 199 -143 139 -380 83 -450 -105 -6 -18 -12 -65 -12
-104 l-1 -73 -375 0 -375 0 0 58 c0 84 -23 152 -71 206 -53 60 -107 87 -185
94 -166 13 -287 -101 -301 -282 l-6 -76 -367 0 -367 0 -6 76 c-14 181 -135
295 -301 282 -152 -13 -256 -134 -256 -300 l0 -58 -375 0 -375 0 -1 73 c0 39
-6 86 -12 104 -54 146 -230 224 -367 162z m155 -143 c19 -8 44 -30 55 -48 18
-30 20 -50 20 -221 0 -209 -5 -232 -63 -267 -41 -25 -83 -25 -125 0 -57 35
-64 68 -60 279 3 206 10 230 73 257 39 17 58 17 100 0z m1325 -14 c46 -34 50
-54 50 -265 l0 -197 -32 -35 c-41 -45 -90 -55 -142 -30 -61 29 -66 49 -66 274
l0 199 27 32 c14 18 36 36 47 41 29 12 86 3 116 -19z m1318 -17 l32 -35 0
-202 c0 -183 -2 -206 -19 -234 -40 -66 -137 -69 -191 -8 l-31 36 3 208 c3 191
5 210 23 230 53 60 131 62 183 5z m1267 29 c65 -30 70 -48 73 -255 4 -211 -3
-244 -60 -279 -42 -25 -84 -25 -125 0 -58 35 -63 58 -63 267 0 171 2 191 20
221 20 33 67 61 103 62 11 0 34 -7 52 -16z m-4235 -417 c0 -62 5 -83 31 -135
51 -103 131 -152 246 -152 107 1 187 47 241 138 22 38 28 63 32 132 l5 85 373
3 372 2 0 -65 c0 -170 118 -295 280 -295 157 0 266 110 277 282 l6 78 367 0
367 0 6 -78 c11 -172 120 -282 277 -282 162 0 280 125 280 295 l0 65 373 -2
372 -3 5 -85 c4 -69 10 -94 32 -132 54 -91 135 -138 238 -137 119 0 198 48
249 151 26 52 31 73 31 135 l0 73 90 0 90 0 0 -284 c0 -156 -3 -304 -6 -329
l-7 -46 -2397 0 -2397 0 -7 46 c-3 25 -6 173 -6 329 l0 284 90 0 90 0 0 -73z
m4635 -2307 l0 -1175 -447 -3 -448 -2 0 -184 c0 -102 -3 -191 -6 -200 -5 -14
-55 -16 -454 -16 l-449 0 -171 200 -170 200 -450 0 -450 0 0 425 0 425 400 0
400 0 0 53 c0 235 -85 455 -239 619 -126 134 -256 213 -431 259 -117 31 -309
31 -425 0 -390 -104 -664 -453 -665 -848 l0 -83 400 0 400 0 0 -425 0 -425
-194 0 -194 0 -33 38 c-19 21 -108 128 -199 239 l-164 201 -39 -31 c-22 -18
-48 -39 -60 -48 -25 -20 -41 5 183 -269 96 -117 175 -214 175 -215 0 -2 -31
-73 -69 -159 l-70 -156 -358 0 -358 0 0 -75 0 -75 1840 0 1840 0 0 -68 c0 -38
3 -117 7 -175 l6 -107 -1961 0 -1962 0 0 1623 c0 893 3 1627 7 1630 3 4 1087
6 2407 5 l2401 -3 0 -1175z m-3072 443 c36 -39 93 -163 117 -258 19 -76 50
-278 50 -331 l0 -24 -220 0 -220 0 0 38 c0 190 77 469 156 561 43 50 78 54
117 14z m-319 -50 c-50 -114 -88 -289 -110 -505 l-5 -58 -170 0 c-129 0 -169
3 -169 13 1 39 36 153 70 222 70 144 179 255 321 329 39 20 73 36 75 36 2 0
-3 -17 -12 -37z m656 -38 c86 -54 159 -127 213 -211 48 -76 92 -177 102 -239
4 -22 9 -48 12 -57 4 -17 -9 -18 -170 -18 l-174 0 -6 98 c-10 156 -57 361
-112 485 -7 17 -6 17 31 0 22 -9 68 -36 104 -58z m-470 -1810 l0 -125 -245 0
c-135 0 -245 2 -245 4 0 4 89 205 101 229 9 15 29 17 199 17 l190 0 0 -125z
m1080 13 c52 -61 99 -118 103 -125 7 -11 -84 -13 -508 -13 l-515 0 0 125 0
125 413 0 412 0 95 -112z m2010 109 c0 -1 -142 -144 -315 -317 l-315 -315 0
318 0 317 315 0 c173 0 315 -1 315 -3z"/>
<path d="M3790 3090 l0 -81 73 3 72 3 3 78 3 77 -76 0 -75 0 0 -80z"/>
<path d="M3452 2997 l-52 -53 55 -54 55 -54 50 49 c27 27 50 54 50 60 0 10
-91 105 -101 105 -2 0 -28 -24 -57 -53z"/>
<path d="M4162 2997 l-52 -53 55 -54 55 -55 52 53 53 52 -55 55 -55 55 -53
-53z"/>
<path d="M3788 2857 c-49 -14 -62 -22 -117 -71 -80 -73 -105 -209 -57 -311 25
-54 90 -119 140 -140 130 -54 279 -2 350 125 27 48 31 64 31 130 0 80 -17 126
-70 188 -57 68 -185 104 -277 79z m132 -162 c36 -19 60 -62 60 -110 l0 -35
-114 0 c-106 0 -115 1 -121 20 -19 59 45 140 111 140 19 0 48 -7 64 -15z"/>
<path d="M3284 2656 c-3 -7 -4 -42 -2 -77 l3 -64 78 -3 77 -3 0 81 0 80 -75 0
c-54 0 -77 -4 -81 -14z"/>
<path d="M4290 2590 l0 -80 75 0 75 0 0 80 0 80 -75 0 -75 0 0 -80z"/>
<path d="M3452 2287 l-52 -53 55 -54 55 -54 50 49 c27 27 50 54 50 60 0 10
-91 105 -101 105 -2 0 -28 -24 -57 -53z"/>
<path d="M4162 2287 l-52 -53 53 -52 53 -52 54 55 54 55 -49 50 c-27 27 -52
50 -55 50 -3 0 -29 -24 -58 -53z"/>
<path d="M3786 2100 c-4 -38 -4 -74 -1 -80 3 -5 40 -10 81 -10 l74 0 0 80 0
80 -74 0 -73 0 -7 -70z"/>
</g>
</svg>
